<svg xmlns="http://www.w3.org/2000/svg" version="1.1" width="100%" height="100%" viewBox="0 0 1000 600"><rect width="1000" height="600" x="0" y="0" fill="#00214d"/><g><rect width="333.3333333333333" height="333.3333333333333" rx="13.333333333333334" ry="13.333333333333334" y="291.873997725805" fill="#f6b042" transform="matrix(0.4635608425943726,0,0,0.4635608425943726,0,87.43850457362353)" x="269.6518859863281"/><path d="M363.10392891922567 383.54067648559374L384.52824955539097 383.54067648559374L442.37391527303726 533.5406769396343L420.94959463687195 533.5406769396343L407.64866224191934 499.02371591470137L339.9835162326973 499.02371591470137L326.6825838377447 533.5406769396343L305.22850720069584 533.5406769396343L363.10392891922567 383.54067648559374ZM373.8756012390754 411.45180531437575L348.13666047479353 477.5696392776525L399.4062499971724 477.5696392776525L373.8756012390754 411.45180531437575ZM463.8279919100861 512.0866003025855L463.8279919100861 486.34765953830356L485.28206854713494 486.34765953830356L485.28206854713494 512.0866003025855L545.9545543487197 512.0866003025855L545.9545543487197 383.54067648559374L567.4086309857685 383.54067648559374L567.4086309857685 512.0866003025855Q567.4086309857685 516.4904884333528 565.6827829345218 520.4182805499831Q563.9569348832752 524.3460726666133 561.0706027975696 527.2621607532026Q558.184270711864 530.1782488397916 554.2564785952336 531.8743408901548Q550.3584424794869 533.5406769396343 545.9545543487197 533.5406769396343L545.9545543487197 533.5406769396343L485.28206854713494 533.5406769396343Q480.8781804163676 533.5406769396343 476.9503882997373 531.8743408901548Q473.0523521839906 530.1782488397916 470.16602009828495 527.2621607532026Q467.2796880125794 524.3460726666133 465.55383996133276 520.4182805499831Q463.8279919100861 516.4904884333528 463.8279919100861 512.0866003025855L463.8279919100861 512.0866003025855Z " fill="#533549" transform="matrix(0.4635608425943726,0,0,0.4635608425943726,0,87.43850457362353)"/><path d="M742.575794926923 387.73466245820214L763.4010935634299 387.73466245820214L819.6293998819986 533.5406769396343L798.8041012454917 533.5406769396343L785.8750616753268 499.988806914151L720.101826815026 499.988806914151L707.1727872448614 533.5406769396343L686.3185645824705 533.5406769396343L742.575794926923 387.73466245820214ZM753.0462922969446 414.86539873742913L728.0270099072522 479.1345842517601L777.8631065054485 479.1345842517601L753.0462922969446 414.86539873742913ZM842.6240004598083 383.5406787050167L862.5526542939099 383.5406787050167L862.5526542939099 533.5406769396343L842.6240004598083 533.5406769396343L842.6240004598083 383.5406787050167ZM896.9143970441462 425.24912402979857L916.9587469817841 425.24912402979857L916.9587469817841 533.5406769396343L896.9143970441462 533.5406769396343L896.9143970441462 425.24912402979857ZM895.9020561382049 404.39490136740767L895.9020561382049 383.5406787050167L917.9710878877254 383.5406787050167L917.9710878877254 404.39490136740767L895.9020561382049 404.39490136740767ZM949.1801118166018 512.6864542772433L949.1801118166018 487.6671718875511L970.0343344789926 487.6671718875511L970.0343344789926 512.6864542772433L1029.0104232565448 512.6864542772433L1029.0104232565448 387.73466245820214L1049.8646459189356 387.73466245820214L1049.8646459189356 512.6864542772433Q1049.8646459189356 516.9672101080808 1048.1870524176616 520.7851815247739Q1046.5094589163873 524.6031529414668 1043.7038284056357 527.4377074781024Q1040.898197894884 530.2722620147381 1037.1091505040752 531.9209314901282Q1033.2911790873823 533.5406769396343 1029.0104232565448 533.5406769396343L1029.0104232565448 533.5406769396343L970.0343344789926 533.5406769396343Q965.7535786481551 533.5406769396343 961.9645312573462 531.9209314901282Q958.1465598406533 530.2722620147381 955.3409293299017 527.4377074781024Q952.5352988191501 524.6031529414668 950.8577053178758 520.7851815247739Q949.1801118166018 516.9672101080808 949.1801118166018 512.6864542772433L949.1801118166018 512.6864542772433ZM1085.2387295751132 513.4963270019964L1085.2387295751132 486.24989461923326Q1085.2387295751132 482.0848348919319 1086.8295509987354 478.46933165642724Q1088.3914483964734 474.8538284209226 1091.0813828036887 472.13496998782307Q1093.8002412367882 469.3871875288395 1097.444668498177 467.79636610521743Q1101.1180197854499 466.23446870747944 1105.1673834092148 466.23446870747944L1105.1673834092148 466.23446870747944L1156.8256936381056 466.23446870747944L1156.8256936381056 445.2645499415524L1091.4573951401812 445.2645499415524L1091.4573951401812 425.24912402979857L1156.8256936381056 425.24912402979857Q1160.990753365407 425.24912402979857 1164.6641046526797 426.81102142753656Q1168.3374559399524 428.4018428511586 1171.027390347168 431.09177725837407Q1173.7173247543835 433.78171166558957 1175.2792221521215 437.4550629528623Q1176.8700435757435 441.099490214251 1176.8700435757435 445.2645499415524L1176.8700435757435 445.2645499415524L1176.8700435757435 533.5406769396343L1156.8256936381056 533.5406769396343L1156.8256936381056 515.2317685550387Q1156.5364533792654 518.9918919199636 1154.801011826223 522.3470789225119Q1153.0655702731808 525.7022659250601 1150.3756358659653 528.1897321510874Q1147.68570145875 530.7061224029986 1144.2148183526654 532.1233996713165Q1140.7728592724648 533.5406769396343 1136.897039804004 533.5406769396343L1136.897039804004 533.5406769396343L1105.1673834092148 533.5406769396343Q1101.1180197854499 533.5406769396343 1097.444668498177 531.9787795418963Q1093.8002412367882 530.3879581182742 1091.0813828036887 527.6980237110588Q1088.3914483964734 525.0080893038432 1086.8295509987354 521.3347380165706Q1085.2387295751132 517.6903107551818 1085.2387295751132 513.4963270019964L1085.2387295751132 513.4963270019964ZM1105.1673834092148 486.24989461923326L1105.1673834092148 513.4963270019964L1156.8256936381056 513.4963270019964L1156.8256936381056 486.24989461923326L1105.1673834092148 486.24989461923326ZM1285.9714692103323 403.5850286426546L1250.3949173729663 403.5850286426546L1250.3949173729663 425.24912402979857L1285.9714692103323 425.24912402979857L1285.9714692103323 445.2645499415524L1250.3949173729663 445.2645499415524L1250.3949173729663 533.5406769396343L1230.3505674353285 533.5406769396343L1230.3505674353285 445.2645499415524L1203.9140077773184 445.2645499415524L1203.9140077773184 425.24912402979857L1230.3505674353285 425.24912402979857L1230.3505674353285 403.5850286426546Q1230.3505674353285 399.41996891535325 1231.9413888589504 395.8044656798486Q1233.5032862566886 392.18896244434393 1236.251068715672 389.44117998536035Q1238.9988511746556 386.69339752637677 1242.6432784360443 385.1315001286388Q1246.3166297233172 383.5406787050167 1250.3949173729663 383.5406787050167L1250.3949173729663 383.5406787050167L1285.9714692103323 383.5406787050167L1285.9714692103323 403.5850286426546ZM1374.3343682860664 445.2645499415524L1333.0597833495451 445.2645499415524L1333.0597833495451 533.5406769396343L1313.1311295154435 533.5406769396343L1313.1311295154435 425.24912402979857L1333.0597833495451 425.24912402979857L1333.0597833495451 444.36790513914724Q1333.2622515307332 440.4053135930341 1334.8819969802396 436.87658243518155Q1336.5017424297455 433.37677530321304 1339.220600862845 430.7736129736497Q1341.9105352700606 428.1993746699703 1345.468190453797 426.7242493498845Q1349.0258456375338 425.24912402979857 1353.075209261299 425.24912402979857L1353.075209261299 425.24912402979857L1374.3343682860664 425.24912402979857Q1378.4994280133676 425.24912402979857 1382.1149312488722 426.81102142753656Q1385.730434484377 428.4018428511586 1388.4782169433606 431.09177725837407Q1391.225999402344 433.78171166558957 1392.787896800082 437.4550629528623Q1394.3787182237043 441.099490214251 1394.3787182237043 445.2645499415524L1394.3787182237043 445.2645499415524L1394.3787182237043 463.573458326148L1374.3343682860664 463.573458326148L1374.3343682860664 445.2645499415524ZM1420.2946454158016 425.24912402979857L1440.3389953534395 425.24912402979857L1440.3389953534395 533.5406769396343L1420.2946454158016 533.5406769396343L1420.2946454158016 425.24912402979857ZM1419.2823045098605 404.39490136740767L1419.2823045098605 383.5406787050167L1441.351336259381 383.5406787050167L1441.351336259381 404.39490136740767L1419.2823045098605 404.39490136740767ZM1474.7007381036758 533.5406769396343L1474.7007381036758 503.1415257355111L1505.0998893077992 503.1415257355111L1505.0998893077992 533.5406769396343L1474.7007381036758 533.5406769396343ZM1538.449291152094 513.4963270019964L1538.449291152094 445.2645499415524Q1538.449291152094 441.099490214251 1540.0401125757164 437.4550629528623Q1541.6020099734542 433.78171166558957 1544.3208684065537 431.09177725837407Q1547.010802813769 428.4018428511586 1550.655230075158 426.81102142753656Q1554.3285813624304 425.24912402979857 1558.3779449861959 425.24912402979857L1558.3779449861959 425.24912402979857L1614.2302389682718 425.24912402979857L1614.2302389682718 383.5406787050167L1634.2456648800257 383.5406787050167L1634.2456648800257 533.5406769396343L1614.2302389682718 533.5406769396343L1614.2302389682718 515.2317685550387Q1613.9120746835474 518.9918919199636 1612.1766331305053 522.3470789225119Q1610.4411915774629 525.7022659250601 1607.7512571702475 528.1897321510874Q1605.0613227630322 530.7061224029986 1601.6193636828314 532.1233996713165Q1598.148480576747 533.5406769396343 1594.2726611082862 533.5406769396343L1594.2726611082862 533.5406769396343L1558.3779449861959 533.5406769396343Q1554.3285813624304 533.5406769396343 1550.655230075158 531.9787795418963Q1547.010802813769 530.3879581182742 1544.3208684065537 527.6980237110588Q1541.6020099734542 525.0080893038432 1540.0401125757164 521.3347380165706Q1538.449291152094 517.6903107551818 1538.449291152094 513.4963270019964L1538.449291152094 513.4963270019964ZM1558.3779449861959 445.2645499415524L1558.3779449861959 513.4963270019964L1614.2302389682718 513.4963270019964L1614.2302389682718 445.2645499415524L1558.3779449861959 445.2645499415524ZM1759.2263807249508 445.2645499415524L1759.2263807249508 489.6050816217816L1687.5237205584224 489.6050816217816L1687.5237205584224 513.4963270019964L1759.2263807249508 513.4963270019964L1759.2263807249508 533.5406769396343L1687.5237205584224 533.5406769396343Q1683.4743569346572 533.5406769396343 1679.8010056473847 531.9787795418963Q1676.1565783859958 530.3879581182742 1673.4377199528963 527.6980237110588Q1670.747785545681 525.0080893038432 1669.1858881479427 521.3347380165706Q1667.5950667243208 517.6903107551818 1667.5950667243208 513.4963270019964L1667.5950667243208 513.4963270019964L1667.5950667243208 445.2645499415524Q1667.5950667243208 441.099490214251 1669.1858881479427 437.4550629528623Q1670.747785545681 433.78171166558957 1673.4377199528963 431.09177725837407Q1676.1565783859958 428.4018428511586 1679.8010056473847 426.81102142753656Q1683.4743569346572 425.24912402979857 1687.5237205584224 425.24912402979857L1687.5237205584224 425.24912402979857L1739.182030787313 425.24912402979857Q1743.3470905146144 425.24912402979857 1747.0204418018873 426.81102142753656Q1750.6937930891602 428.4018428511586 1753.3837274963755 431.09177725837407Q1756.0736619035908 433.78171166558957 1757.6355593013288 437.4550629528623Q1759.2263807249508 441.099490214251 1759.2263807249508 445.2645499415524L1759.2263807249508 445.2645499415524ZM1739.182030787313 445.2645499415524L1687.5237205584224 445.2645499415524L1687.5237205584224 469.5896557100278L1739.182030787313 469.5896557100278L1739.182030787313 445.2645499415524ZM1844.2340927981365 533.5406769396343L1823.3798701357457 533.5406769396343L1780.080603387342 425.24912402979857L1800.905902023849 425.24912402979857L1833.7635954281152 509.5337354558833L1866.7080609100337 425.24912402979857L1887.5622835724246 425.24912402979857L1844.2340927981365 533.5406769396343Z " fill="#f6b042" transform="matrix(0.4635608425943726,0,0,0.4635608425943726,0,87.43850457362353)"/></g></svg>