<svg xmlns="http://www.w3.org/2000/svg" viewBox="125 222.74 154.52 154.52">
  <path fill="#f6b042" d="M131.18 222.74h142.16a6.18 6.18 0 0 1 6.18 6.18v142.16a6.18 6.18 0 0 1-6.18 6.18H131.18a6.18 6.18 0 0 1-6.18-6.18V228.92a6.18 6.18 0 0 1 6.18-6.18z"/>
  <path d="M168.32 265.233h9.932l26.815 69.534h-9.931l-6.166-16h-31.367l-6.166 16h-9.945l26.829-69.534Zm4.994 12.939-11.931 30.65h23.766l-11.835-30.65Zm41.698 46.65V312.89h9.946v11.932h28.125v-59.589h9.946v59.589q0 2.041-.8 3.862-.8 1.82-2.138 3.173-1.339 1.351-3.16 2.137-1.807.773-3.848.773h-28.125q-2.042 0-3.863-.773-1.807-.786-3.144-2.137-1.338-1.352-2.138-3.173-.8-1.821-.8-3.862Z" fill="#533549"/>
</svg>